<svg xmlns="http://www.w3.org/2000/svg" viewBox="0 0 64 64"><defs><linearGradient id="g" x1="0" y1="0" x2="1" y2="1"><stop offset="0" stop-color="#FFF1B8"/><stop offset=".5" stop-color="#D4AF37"/><stop offset="1" stop-color="#A37A1C"/></linearGradient><radialGradient id="f" cx=".5" cy=".75" r=".75"><stop offset="0" stop-color="#FFFBE6"/><stop offset=".4" stop-color="#FFD54A"/><stop offset="1" stop-color="#F47A00"/></radialGradient></defs><rect width="64" height="64" rx="14" fill="#5A0F1B"/><rect x="3" y="3" width="58" height="58" rx="11" fill="none" stroke="url(#g)" stroke-width="1.5"/><path d="M32 9c4.5 7 7 12 5.5 17-1 3.2-10 3.2-11 0C25 21 27.5 16 32 9Z" fill="url(#f)"/><path d="M9 34c3 16 43 16 46 0-10 4-36 4-46 0Z" fill="url(#g)"/><ellipse cx="32" cy="34" rx="23" ry="3.6" fill="#3a0810" stroke="url(#g)" stroke-width="1"/><path d="M24 48l-2 6h20l-2-6" fill="url(#g)"/></svg>
